<mxfile host="app.diagrams.net" agent="Mozilla/5.0 (Windows NT 10.0; Win64; x64) AppleWebKit/537.36 (KHTML, like Gecko) Chrome/131.0.0.0 Safari/537.36" version="25.0.3">
  <diagram name="Страница — 1" id="TeSDbttE-qALMEtE3NaF">
    <mxGraphModel dx="5239" dy="1950" grid="1" gridSize="10" guides="1" tooltips="1" connect="1" arrows="1" fold="1" page="1" pageScale="1" pageWidth="827" pageHeight="1169" math="0" shadow="0">
      <root>
        <mxCell id="0" />
        <mxCell id="1" parent="0" />
        <mxCell id="ub65DPXcRHodQ96eIFMr-1" value="" style="edgeStyle=orthogonalEdgeStyle;rounded=0;orthogonalLoop=1;jettySize=auto;html=1;" edge="1" parent="1" source="ub65DPXcRHodQ96eIFMr-2" target="ub65DPXcRHodQ96eIFMr-44">
          <mxGeometry relative="1" as="geometry" />
        </mxCell>
        <mxCell id="ub65DPXcRHodQ96eIFMr-2" value="&lt;div style=&quot;text-align: left;&quot;&gt;&lt;font style=&quot;font-size: 13px;&quot;&gt;&lt;span style=&quot;font-size: 18px; text-align: center;&quot;&gt;Аналіз ринку та попиту.&lt;/span&gt;&lt;/font&gt;&lt;/div&gt;&lt;div style=&quot;text-align: left;&quot;&gt;&lt;font style=&quot;font-size: 13px;&quot;&gt;А1&lt;/font&gt;&lt;/div&gt;" style="rounded=0;whiteSpace=wrap;html=1;spacing=2;spacingTop=12;spacingLeft=3;" vertex="1" parent="1">
          <mxGeometry x="-1003" y="1018" width="189" height="68" as="geometry" />
        </mxCell>
        <mxCell id="ub65DPXcRHodQ96eIFMr-3" value="" style="edgeStyle=orthogonalEdgeStyle;rounded=0;orthogonalLoop=1;jettySize=auto;html=1;" edge="1" parent="1" source="ub65DPXcRHodQ96eIFMr-5" target="ub65DPXcRHodQ96eIFMr-52">
          <mxGeometry relative="1" as="geometry">
            <Array as="points">
              <mxPoint x="-402" y="1095" />
              <mxPoint x="-402" y="1121" />
            </Array>
          </mxGeometry>
        </mxCell>
        <mxCell id="ub65DPXcRHodQ96eIFMr-4" value="" style="edgeStyle=orthogonalEdgeStyle;rounded=0;orthogonalLoop=1;jettySize=auto;html=1;entryX=0.029;entryY=0.599;entryDx=0;entryDy=0;entryPerimeter=0;" edge="1" parent="1" source="ub65DPXcRHodQ96eIFMr-5" target="ub65DPXcRHodQ96eIFMr-16">
          <mxGeometry relative="1" as="geometry">
            <Array as="points">
              <mxPoint x="-372" y="1079" />
            </Array>
          </mxGeometry>
        </mxCell>
        <mxCell id="ub65DPXcRHodQ96eIFMr-5" value="&lt;font style=&quot;font-size: 18px;&quot;&gt;Планування збуту товару.&lt;/font&gt;&lt;div&gt;&lt;div style=&quot;text-align: left;&quot;&gt;&lt;font style=&quot;font-size: 13px;&quot;&gt;А2&lt;/font&gt;&lt;/div&gt;&lt;/div&gt;" style="rounded=0;whiteSpace=wrap;html=1;spacing=2;spacingTop=12;spacingLeft=3;" vertex="1" parent="1">
          <mxGeometry x="-611" y="1045" width="189" height="68" as="geometry" />
        </mxCell>
        <mxCell id="ub65DPXcRHodQ96eIFMr-6" value="" style="edgeStyle=orthogonalEdgeStyle;rounded=0;orthogonalLoop=1;jettySize=auto;html=1;" edge="1" parent="1" source="ub65DPXcRHodQ96eIFMr-7" target="ub65DPXcRHodQ96eIFMr-54">
          <mxGeometry relative="1" as="geometry" />
        </mxCell>
        <mxCell id="ub65DPXcRHodQ96eIFMr-7" value="&lt;font style=&quot;font-size: 18px;&quot;&gt;Вироблення стратегії продажу.&lt;/font&gt;&lt;div&gt;&lt;div style=&quot;text-align: left;&quot;&gt;&lt;span style=&quot;font-size: 13px; background-color: initial;&quot;&gt;А3&lt;/span&gt;&lt;/div&gt;&lt;/div&gt;" style="rounded=0;whiteSpace=wrap;html=1;spacing=2;spacingTop=12;spacingLeft=3;" vertex="1" parent="1">
          <mxGeometry x="-222" y="1078" width="189" height="68" as="geometry" />
        </mxCell>
        <mxCell id="ub65DPXcRHodQ96eIFMr-8" value="" style="edgeStyle=orthogonalEdgeStyle;rounded=0;orthogonalLoop=1;jettySize=auto;html=1;" edge="1" parent="1" source="ub65DPXcRHodQ96eIFMr-9" target="ub65DPXcRHodQ96eIFMr-60">
          <mxGeometry relative="1" as="geometry" />
        </mxCell>
        <mxCell id="ub65DPXcRHodQ96eIFMr-9" value="&lt;font style=&quot;font-size: 18px;&quot;&gt;Реалізація збуту&lt;/font&gt;&lt;div style=&quot;text-align: left;&quot;&gt;&lt;font style=&quot;font-size: 13px;&quot;&gt;А4&lt;/font&gt;&lt;/div&gt;" style="rounded=0;whiteSpace=wrap;html=1;spacing=2;spacingTop=12;spacingLeft=3;" vertex="1" parent="1">
          <mxGeometry x="178" y="1113" width="189" height="68" as="geometry" />
        </mxCell>
        <mxCell id="ub65DPXcRHodQ96eIFMr-10" value="Моніторинг результатів та звітність&lt;br&gt;&lt;div style=&quot;text-align: left;&quot;&gt;&lt;font style=&quot;font-size: 13px;&quot;&gt;А5&lt;/font&gt;&lt;/div&gt;" style="rounded=0;whiteSpace=wrap;html=1;spacing=2;spacingTop=12;spacingLeft=3;" vertex="1" parent="1">
          <mxGeometry x="591" y="1146" width="189" height="68" as="geometry" />
        </mxCell>
        <mxCell id="ub65DPXcRHodQ96eIFMr-11" value="" style="edgeStyle=orthogonalEdgeStyle;rounded=0;orthogonalLoop=1;jettySize=auto;html=1;" edge="1" parent="1" source="ub65DPXcRHodQ96eIFMr-12" target="ub65DPXcRHodQ96eIFMr-2">
          <mxGeometry relative="1" as="geometry">
            <Array as="points">
              <mxPoint x="-858" y="1128" />
              <mxPoint x="-858" y="1128" />
            </Array>
          </mxGeometry>
        </mxCell>
        <mxCell id="ub65DPXcRHodQ96eIFMr-12" value="&lt;span style=&quot;font-size: 14px;&quot;&gt;Зовнішня аналітика ринку.&lt;/span&gt;" style="text;html=1;align=center;verticalAlign=middle;resizable=0;points=[];autosize=1;strokeColor=none;fillColor=none;" vertex="1" parent="1">
          <mxGeometry x="-954" y="1168" width="189" height="29" as="geometry" />
        </mxCell>
        <mxCell id="ub65DPXcRHodQ96eIFMr-13" style="edgeStyle=orthogonalEdgeStyle;rounded=0;orthogonalLoop=1;jettySize=auto;html=1;entryX=0.5;entryY=1;entryDx=0;entryDy=0;" edge="1" parent="1" source="ub65DPXcRHodQ96eIFMr-14" target="ub65DPXcRHodQ96eIFMr-5">
          <mxGeometry relative="1" as="geometry" />
        </mxCell>
        <mxCell id="ub65DPXcRHodQ96eIFMr-14" value="&lt;font style=&quot;font-size: 14px;&quot;&gt;Співробітники відділу збуту та планування.&lt;/font&gt;" style="text;html=1;align=center;verticalAlign=middle;resizable=0;points=[];autosize=1;strokeColor=none;fillColor=none;" vertex="1" parent="1">
          <mxGeometry x="-665.5" y="1166" width="298" height="29" as="geometry" />
        </mxCell>
        <mxCell id="ub65DPXcRHodQ96eIFMr-15" value="" style="edgeStyle=orthogonalEdgeStyle;rounded=0;orthogonalLoop=1;jettySize=auto;html=1;" edge="1" parent="1" source="ub65DPXcRHodQ96eIFMr-16" target="ub65DPXcRHodQ96eIFMr-7">
          <mxGeometry relative="1" as="geometry" />
        </mxCell>
        <mxCell id="ub65DPXcRHodQ96eIFMr-16" value="План збуту товару" style="text;html=1;align=center;verticalAlign=middle;resizable=0;points=[];autosize=1;strokeColor=none;fillColor=none;" vertex="1" parent="1">
          <mxGeometry x="-376" y="1063" width="121" height="26" as="geometry" />
        </mxCell>
        <mxCell id="ub65DPXcRHodQ96eIFMr-17" style="edgeStyle=orthogonalEdgeStyle;rounded=0;orthogonalLoop=1;jettySize=auto;html=1;" edge="1" parent="1" source="ub65DPXcRHodQ96eIFMr-18">
          <mxGeometry relative="1" as="geometry">
            <mxPoint x="-554" y="1045" as="targetPoint" />
            <Array as="points">
              <mxPoint x="-554" y="1045" />
            </Array>
          </mxGeometry>
        </mxCell>
        <mxCell id="ub65DPXcRHodQ96eIFMr-18" value="&lt;font style=&quot;font-size: 14px;&quot;&gt;План продажів&lt;/font&gt;" style="text;html=1;align=center;verticalAlign=middle;resizable=0;points=[];autosize=1;strokeColor=none;fillColor=none;" vertex="1" parent="1">
          <mxGeometry x="-610" y="989" width="114" height="29" as="geometry" />
        </mxCell>
        <mxCell id="ub65DPXcRHodQ96eIFMr-19" style="edgeStyle=orthogonalEdgeStyle;rounded=0;orthogonalLoop=1;jettySize=auto;html=1;entryX=0.75;entryY=0;entryDx=0;entryDy=0;" edge="1" parent="1" source="ub65DPXcRHodQ96eIFMr-20">
          <mxGeometry relative="1" as="geometry">
            <mxPoint x="-454" y="1045" as="targetPoint" />
          </mxGeometry>
        </mxCell>
        <mxCell id="ub65DPXcRHodQ96eIFMr-20" value="&lt;font style=&quot;font-size: 14px;&quot;&gt;Норми витрат&amp;nbsp;&lt;/font&gt;&lt;div&gt;&lt;font style=&quot;font-size: 14px;&quot;&gt;на логістику.&lt;/font&gt;&lt;/div&gt;" style="text;html=1;align=center;verticalAlign=middle;resizable=0;points=[];autosize=1;strokeColor=none;fillColor=none;" vertex="1" parent="1">
          <mxGeometry x="-509" y="981" width="112" height="46" as="geometry" />
        </mxCell>
        <mxCell id="ub65DPXcRHodQ96eIFMr-21" value="Персонал: маркетингова команда, менеджери з продажу." style="text;html=1;align=center;verticalAlign=middle;resizable=0;points=[];autosize=1;strokeColor=none;fillColor=none;" vertex="1" parent="1">
          <mxGeometry x="-296" y="1199.3600000000001" width="338" height="26" as="geometry" />
        </mxCell>
        <mxCell id="ub65DPXcRHodQ96eIFMr-22" style="edgeStyle=orthogonalEdgeStyle;rounded=0;orthogonalLoop=1;jettySize=auto;html=1;entryX=0.543;entryY=0.98;entryDx=0;entryDy=0;entryPerimeter=0;" edge="1" parent="1" source="ub65DPXcRHodQ96eIFMr-21">
          <mxGeometry relative="1" as="geometry">
            <mxPoint x="-127.37299999999982" y="1146" as="targetPoint" />
          </mxGeometry>
        </mxCell>
        <mxCell id="ub65DPXcRHodQ96eIFMr-23" style="edgeStyle=orthogonalEdgeStyle;rounded=0;orthogonalLoop=1;jettySize=auto;html=1;entryX=0;entryY=0.5;entryDx=0;entryDy=0;" edge="1" parent="1" source="ub65DPXcRHodQ96eIFMr-24" target="ub65DPXcRHodQ96eIFMr-9">
          <mxGeometry relative="1" as="geometry" />
        </mxCell>
        <mxCell id="ub65DPXcRHodQ96eIFMr-24" value="Стратегія продажу&amp;nbsp;" style="text;html=1;align=center;verticalAlign=middle;resizable=0;points=[];autosize=1;strokeColor=none;fillColor=none;" vertex="1" parent="1">
          <mxGeometry x="2" y="1081" width="125" height="26" as="geometry" />
        </mxCell>
        <mxCell id="ub65DPXcRHodQ96eIFMr-25" style="edgeStyle=orthogonalEdgeStyle;rounded=0;orthogonalLoop=1;jettySize=auto;html=1;entryX=0.003;entryY=0.53;entryDx=0;entryDy=0;entryPerimeter=0;" edge="1" parent="1" source="ub65DPXcRHodQ96eIFMr-7" target="ub65DPXcRHodQ96eIFMr-24">
          <mxGeometry relative="1" as="geometry">
            <Array as="points">
              <mxPoint x="-16" y="1095" />
              <mxPoint x="-16" y="1095" />
            </Array>
          </mxGeometry>
        </mxCell>
        <mxCell id="ub65DPXcRHodQ96eIFMr-26" style="edgeStyle=orthogonalEdgeStyle;rounded=0;orthogonalLoop=1;jettySize=auto;html=1;" edge="1" parent="1" source="ub65DPXcRHodQ96eIFMr-27">
          <mxGeometry relative="1" as="geometry">
            <mxPoint x="271.5" y="1115.5" as="targetPoint" />
            <Array as="points">
              <mxPoint x="271.5" y="1115.5" />
            </Array>
          </mxGeometry>
        </mxCell>
        <mxCell id="ub65DPXcRHodQ96eIFMr-27" value="&lt;font style=&quot;font-size: 14px;&quot;&gt;Контроль виконання замовлень.&lt;/font&gt;" style="text;html=1;align=center;verticalAlign=middle;resizable=0;points=[];autosize=1;strokeColor=none;fillColor=none;" vertex="1" parent="1">
          <mxGeometry x="158.5" y="1057" width="228" height="29" as="geometry" />
        </mxCell>
        <mxCell id="ub65DPXcRHodQ96eIFMr-28" value="Транспортні засоби&amp;nbsp;&lt;div&gt;для доставки.&lt;/div&gt;" style="text;html=1;align=center;verticalAlign=middle;resizable=0;points=[];autosize=1;strokeColor=none;fillColor=none;" vertex="1" parent="1">
          <mxGeometry x="151" y="1214.5" width="130" height="41" as="geometry" />
        </mxCell>
        <mxCell id="ub65DPXcRHodQ96eIFMr-29" style="edgeStyle=orthogonalEdgeStyle;rounded=0;orthogonalLoop=1;jettySize=auto;html=1;entryX=0.75;entryY=1;entryDx=0;entryDy=0;" edge="1" parent="1" source="ub65DPXcRHodQ96eIFMr-30" target="ub65DPXcRHodQ96eIFMr-9">
          <mxGeometry relative="1" as="geometry" />
        </mxCell>
        <mxCell id="ub65DPXcRHodQ96eIFMr-30" value="Персонал: менеджери з продажу,&amp;nbsp;&lt;div&gt;водії, складськ&lt;/div&gt;&lt;div&gt;і працівники.&lt;/div&gt;" style="text;html=1;align=center;verticalAlign=middle;resizable=0;points=[];autosize=1;strokeColor=none;fillColor=none;" vertex="1" parent="1">
          <mxGeometry x="215" y="1255.5" width="208" height="55" as="geometry" />
        </mxCell>
        <mxCell id="ub65DPXcRHodQ96eIFMr-31" style="edgeStyle=orthogonalEdgeStyle;rounded=0;orthogonalLoop=1;jettySize=auto;html=1;entryX=0.195;entryY=1.002;entryDx=0;entryDy=0;entryPerimeter=0;" edge="1" parent="1" source="ub65DPXcRHodQ96eIFMr-28" target="ub65DPXcRHodQ96eIFMr-9">
          <mxGeometry relative="1" as="geometry" />
        </mxCell>
        <mxCell id="ub65DPXcRHodQ96eIFMr-32" style="edgeStyle=orthogonalEdgeStyle;rounded=0;orthogonalLoop=1;jettySize=auto;html=1;entryX=0;entryY=0.5;entryDx=0;entryDy=0;" edge="1" parent="1" source="ub65DPXcRHodQ96eIFMr-33" target="ub65DPXcRHodQ96eIFMr-10">
          <mxGeometry relative="1" as="geometry" />
        </mxCell>
        <mxCell id="ub65DPXcRHodQ96eIFMr-33" value="Виконані замовлення" style="text;html=1;align=center;verticalAlign=middle;resizable=0;points=[];autosize=1;strokeColor=none;fillColor=none;" vertex="1" parent="1">
          <mxGeometry x="412" y="1116" width="137" height="26" as="geometry" />
        </mxCell>
        <mxCell id="ub65DPXcRHodQ96eIFMr-34" style="edgeStyle=orthogonalEdgeStyle;rounded=0;orthogonalLoop=1;jettySize=auto;html=1;entryX=-0.002;entryY=0.497;entryDx=0;entryDy=0;entryPerimeter=0;" edge="1" parent="1" source="ub65DPXcRHodQ96eIFMr-9" target="ub65DPXcRHodQ96eIFMr-33">
          <mxGeometry relative="1" as="geometry">
            <Array as="points">
              <mxPoint x="405" y="1128" />
            </Array>
          </mxGeometry>
        </mxCell>
        <mxCell id="ub65DPXcRHodQ96eIFMr-35" value="" style="edgeStyle=orthogonalEdgeStyle;rounded=0;orthogonalLoop=1;jettySize=auto;html=1;" edge="1" parent="1" source="ub65DPXcRHodQ96eIFMr-36" target="ub65DPXcRHodQ96eIFMr-10">
          <mxGeometry relative="1" as="geometry">
            <Array as="points">
              <mxPoint x="607" y="1235" />
              <mxPoint x="607" y="1235" />
            </Array>
          </mxGeometry>
        </mxCell>
        <mxCell id="ub65DPXcRHodQ96eIFMr-36" value="Регламенти звітності" style="text;html=1;align=center;verticalAlign=middle;resizable=0;points=[];autosize=1;strokeColor=none;fillColor=none;" vertex="1" parent="1">
          <mxGeometry x="540" y="1255.5" width="135" height="26" as="geometry" />
        </mxCell>
        <mxCell id="ub65DPXcRHodQ96eIFMr-37" value="Звіт про ефективність збуту." style="text;html=1;align=center;verticalAlign=middle;resizable=0;points=[];autosize=1;strokeColor=none;fillColor=none;" vertex="1" parent="1">
          <mxGeometry x="818" y="1165" width="176" height="26" as="geometry" />
        </mxCell>
        <mxCell id="ub65DPXcRHodQ96eIFMr-38" style="edgeStyle=orthogonalEdgeStyle;rounded=0;orthogonalLoop=1;jettySize=auto;html=1;entryX=0.003;entryY=0.554;entryDx=0;entryDy=0;entryPerimeter=0;" edge="1" parent="1" source="ub65DPXcRHodQ96eIFMr-10" target="ub65DPXcRHodQ96eIFMr-37">
          <mxGeometry relative="1" as="geometry" />
        </mxCell>
        <mxCell id="ub65DPXcRHodQ96eIFMr-39" value="" style="edgeStyle=orthogonalEdgeStyle;rounded=0;orthogonalLoop=1;jettySize=auto;html=1;" edge="1" parent="1" source="ub65DPXcRHodQ96eIFMr-40" target="ub65DPXcRHodQ96eIFMr-2">
          <mxGeometry relative="1" as="geometry">
            <Array as="points">
              <mxPoint x="-1025" y="1030" />
              <mxPoint x="-1025" y="1030" />
            </Array>
          </mxGeometry>
        </mxCell>
        <mxCell id="ub65DPXcRHodQ96eIFMr-40" value="&lt;font style=&quot;font-size: 14px;&quot;&gt;Дані про конкурентів.&lt;/font&gt;" style="text;html=1;align=center;verticalAlign=middle;resizable=0;points=[];autosize=1;strokeColor=none;fillColor=none;" vertex="1" parent="1">
          <mxGeometry x="-1219" y="1016" width="156" height="29" as="geometry" />
        </mxCell>
        <mxCell id="ub65DPXcRHodQ96eIFMr-41" value="" style="edgeStyle=orthogonalEdgeStyle;rounded=0;orthogonalLoop=1;jettySize=auto;html=1;" edge="1" parent="1" source="ub65DPXcRHodQ96eIFMr-42" target="ub65DPXcRHodQ96eIFMr-2">
          <mxGeometry relative="1" as="geometry">
            <Array as="points">
              <mxPoint x="-1017" y="1083" />
              <mxPoint x="-1017" y="1083" />
            </Array>
          </mxGeometry>
        </mxCell>
        <mxCell id="ub65DPXcRHodQ96eIFMr-42" value="&lt;span style=&quot;font-size: 14px;&quot;&gt;Запити споживачів.&lt;/span&gt;" style="text;html=1;align=center;verticalAlign=middle;resizable=0;points=[];autosize=1;strokeColor=none;fillColor=none;" vertex="1" parent="1">
          <mxGeometry x="-1219" y="1068.5" width="144" height="29" as="geometry" />
        </mxCell>
        <mxCell id="ub65DPXcRHodQ96eIFMr-43" value="" style="edgeStyle=orthogonalEdgeStyle;rounded=0;orthogonalLoop=1;jettySize=auto;html=1;" edge="1" parent="1" source="ub65DPXcRHodQ96eIFMr-44" target="ub65DPXcRHodQ96eIFMr-5">
          <mxGeometry relative="1" as="geometry" />
        </mxCell>
        <mxCell id="ub65DPXcRHodQ96eIFMr-44" value="&lt;font style=&quot;font-size: 14px;&quot;&gt;Аналітичний звіт&lt;/font&gt;&lt;div&gt;&lt;font style=&quot;font-size: 14px;&quot;&gt;&amp;nbsp;про попит.&lt;/font&gt;&lt;/div&gt;" style="text;html=1;align=center;verticalAlign=middle;resizable=0;points=[];autosize=1;strokeColor=none;fillColor=none;" vertex="1" parent="1">
          <mxGeometry x="-777" y="1047.5" width="126" height="46" as="geometry" />
        </mxCell>
        <mxCell id="ub65DPXcRHodQ96eIFMr-45" value="" style="edgeStyle=orthogonalEdgeStyle;rounded=0;orthogonalLoop=1;jettySize=auto;html=1;" edge="1" parent="1" source="ub65DPXcRHodQ96eIFMr-46" target="ub65DPXcRHodQ96eIFMr-2">
          <mxGeometry relative="1" as="geometry">
            <Array as="points">
              <mxPoint x="-964" y="961" />
              <mxPoint x="-964" y="961" />
            </Array>
          </mxGeometry>
        </mxCell>
        <mxCell id="ub65DPXcRHodQ96eIFMr-46" value="&lt;font style=&quot;font-size: 14px;&quot;&gt;Плани маркетингових&amp;nbsp;&lt;/font&gt;&lt;div&gt;&lt;font style=&quot;font-size: 14px;&quot;&gt;досліджень.&lt;/font&gt;&lt;/div&gt;" style="text;html=1;align=center;verticalAlign=middle;resizable=0;points=[];autosize=1;strokeColor=none;fillColor=none;" vertex="1" parent="1">
          <mxGeometry x="-1045" y="925" width="163" height="46" as="geometry" />
        </mxCell>
        <mxCell id="ub65DPXcRHodQ96eIFMr-47" value="" style="edgeStyle=orthogonalEdgeStyle;rounded=0;orthogonalLoop=1;jettySize=auto;html=1;" edge="1" parent="1" source="ub65DPXcRHodQ96eIFMr-48" target="ub65DPXcRHodQ96eIFMr-2">
          <mxGeometry relative="1" as="geometry">
            <Array as="points">
              <mxPoint x="-826" y="1000" />
              <mxPoint x="-826" y="1000" />
            </Array>
          </mxGeometry>
        </mxCell>
        <mxCell id="ub65DPXcRHodQ96eIFMr-48" value="&lt;font style=&quot;font-size: 14px;&quot;&gt;Регламенти збору та&lt;/font&gt;&lt;div&gt;&lt;font style=&quot;font-size: 14px;&quot;&gt;&amp;nbsp;обробки інформації.&lt;/font&gt;&lt;/div&gt;" style="text;html=1;align=center;verticalAlign=middle;resizable=0;points=[];autosize=1;strokeColor=none;fillColor=none;" vertex="1" parent="1">
          <mxGeometry x="-905.5" y="946" width="153" height="46" as="geometry" />
        </mxCell>
        <mxCell id="ub65DPXcRHodQ96eIFMr-49" value="" style="edgeStyle=orthogonalEdgeStyle;rounded=0;orthogonalLoop=1;jettySize=auto;html=1;" edge="1" parent="1" source="ub65DPXcRHodQ96eIFMr-50" target="ub65DPXcRHodQ96eIFMr-2">
          <mxGeometry relative="1" as="geometry">
            <Array as="points">
              <mxPoint x="-1000" y="1112" />
              <mxPoint x="-1000" y="1112" />
            </Array>
          </mxGeometry>
        </mxCell>
        <mxCell id="ub65DPXcRHodQ96eIFMr-50" value="&lt;font style=&quot;font-size: 14px;&quot;&gt;Персонал: аналітики,&amp;nbsp;&lt;/font&gt;&lt;div&gt;&lt;font style=&quot;font-size: 14px;&quot;&gt;маркетологи.&lt;/font&gt;&lt;/div&gt;" style="text;html=1;align=center;verticalAlign=middle;resizable=0;points=[];autosize=1;strokeColor=none;fillColor=none;" vertex="1" parent="1">
          <mxGeometry x="-1080" y="1138" width="161" height="46" as="geometry" />
        </mxCell>
        <mxCell id="ub65DPXcRHodQ96eIFMr-51" value="" style="edgeStyle=orthogonalEdgeStyle;rounded=0;orthogonalLoop=1;jettySize=auto;html=1;" edge="1" parent="1" source="ub65DPXcRHodQ96eIFMr-52" target="ub65DPXcRHodQ96eIFMr-7">
          <mxGeometry relative="1" as="geometry">
            <Array as="points">
              <mxPoint x="-249" y="1129" />
              <mxPoint x="-249" y="1135" />
            </Array>
          </mxGeometry>
        </mxCell>
        <mxCell id="ub65DPXcRHodQ96eIFMr-52" value="Прогноз фінансових&amp;nbsp;&lt;div&gt;показників.&lt;/div&gt;" style="text;html=1;align=center;verticalAlign=middle;resizable=0;points=[];autosize=1;strokeColor=none;fillColor=none;" vertex="1" parent="1">
          <mxGeometry x="-401" y="1101" width="134" height="41" as="geometry" />
        </mxCell>
        <mxCell id="ub65DPXcRHodQ96eIFMr-53" value="" style="edgeStyle=orthogonalEdgeStyle;rounded=0;orthogonalLoop=1;jettySize=auto;html=1;" edge="1" parent="1" source="ub65DPXcRHodQ96eIFMr-54" target="ub65DPXcRHodQ96eIFMr-9">
          <mxGeometry relative="1" as="geometry">
            <Array as="points">
              <mxPoint x="142" y="1153" />
              <mxPoint x="142" y="1167" />
            </Array>
          </mxGeometry>
        </mxCell>
        <mxCell id="ub65DPXcRHodQ96eIFMr-54" value="План рекламної кампанії." style="text;html=1;align=center;verticalAlign=middle;whiteSpace=wrap;rounded=0;" vertex="1" parent="1">
          <mxGeometry x="46" y="1138" width="60" height="30" as="geometry" />
        </mxCell>
        <mxCell id="ub65DPXcRHodQ96eIFMr-55" value="" style="edgeStyle=orthogonalEdgeStyle;rounded=0;orthogonalLoop=1;jettySize=auto;html=1;" edge="1" parent="1" source="ub65DPXcRHodQ96eIFMr-56" target="ub65DPXcRHodQ96eIFMr-7">
          <mxGeometry relative="1" as="geometry">
            <Array as="points">
              <mxPoint x="-196" y="1061" />
              <mxPoint x="-196" y="1061" />
            </Array>
          </mxGeometry>
        </mxCell>
        <mxCell id="ub65DPXcRHodQ96eIFMr-56" value="Стратегічний&amp;nbsp;&lt;div&gt;план збуту.&lt;/div&gt;" style="text;html=1;align=center;verticalAlign=middle;resizable=0;points=[];autosize=1;strokeColor=none;fillColor=none;" vertex="1" parent="1">
          <mxGeometry x="-243" y="991" width="94" height="41" as="geometry" />
        </mxCell>
        <mxCell id="ub65DPXcRHodQ96eIFMr-57" value="" style="edgeStyle=orthogonalEdgeStyle;rounded=0;orthogonalLoop=1;jettySize=auto;html=1;" edge="1" parent="1" source="ub65DPXcRHodQ96eIFMr-58" target="ub65DPXcRHodQ96eIFMr-7">
          <mxGeometry relative="1" as="geometry">
            <Array as="points">
              <mxPoint x="-71" y="1065" />
              <mxPoint x="-71" y="1065" />
            </Array>
          </mxGeometry>
        </mxCell>
        <mxCell id="ub65DPXcRHodQ96eIFMr-58" value="Маркетинговий&amp;nbsp;&lt;div&gt;бюджет.&lt;/div&gt;" style="text;html=1;align=center;verticalAlign=middle;resizable=0;points=[];autosize=1;strokeColor=none;fillColor=none;" vertex="1" parent="1">
          <mxGeometry x="-124" y="989" width="106" height="41" as="geometry" />
        </mxCell>
        <mxCell id="ub65DPXcRHodQ96eIFMr-59" value="" style="edgeStyle=orthogonalEdgeStyle;rounded=0;orthogonalLoop=1;jettySize=auto;html=1;" edge="1" parent="1" source="ub65DPXcRHodQ96eIFMr-60" target="ub65DPXcRHodQ96eIFMr-10">
          <mxGeometry relative="1" as="geometry">
            <Array as="points">
              <mxPoint x="581" y="1197" />
              <mxPoint x="581" y="1197" />
            </Array>
          </mxGeometry>
        </mxCell>
        <mxCell id="ub65DPXcRHodQ96eIFMr-60" value="Стан виконання&amp;nbsp;&lt;div&gt;плану збуту.&lt;/div&gt;" style="text;html=1;align=center;verticalAlign=middle;resizable=0;points=[];autosize=1;strokeColor=none;fillColor=none;" vertex="1" parent="1">
          <mxGeometry x="442" y="1176" width="110" height="41" as="geometry" />
        </mxCell>
        <mxCell id="ub65DPXcRHodQ96eIFMr-61" value="" style="edgeStyle=orthogonalEdgeStyle;rounded=0;orthogonalLoop=1;jettySize=auto;html=1;" edge="1" parent="1" source="ub65DPXcRHodQ96eIFMr-62" target="ub65DPXcRHodQ96eIFMr-10">
          <mxGeometry relative="1" as="geometry">
            <Array as="points">
              <mxPoint x="752" y="1229" />
              <mxPoint x="752" y="1229" />
            </Array>
          </mxGeometry>
        </mxCell>
        <mxCell id="ub65DPXcRHodQ96eIFMr-62" value="Показники ефективності" style="text;html=1;align=center;verticalAlign=middle;resizable=0;points=[];autosize=1;strokeColor=none;fillColor=none;" vertex="1" parent="1">
          <mxGeometry x="675" y="1255.5" width="154" height="26" as="geometry" />
        </mxCell>
      </root>
    </mxGraphModel>
  </diagram>
</mxfile>
